<svg width="512" height="512" viewBox="0 0 512 512" fill="none" xmlns="http://www.w3.org/2000/svg">
<path d="M30.9421 276.129C29.5998 276.129 28.4406 275.641 27.4643 274.665C26.4881 273.689 26 272.53 26 271.187V152.942C26 151.6 26.4881 150.441 27.4643 149.464C28.4406 148.488 29.5998 148 30.9421 148H59.8628C62.3033 148 64.0727 148.549 65.171 149.647C66.2692 150.746 67.0014 151.6 67.3675 152.21L98.3016 202.913V152.942C98.3016 151.6 98.7897 150.441 99.7659 149.464C100.742 148.488 101.901 148 103.244 148H136.374C137.717 148 138.876 148.488 139.852 149.464C140.828 150.441 141.316 151.6 141.316 152.942V271.187C141.316 272.53 140.828 273.689 139.852 274.665C138.876 275.641 137.717 276.129 136.374 276.129H107.454C105.013 276.129 103.244 275.58 102.145 274.482C101.047 273.262 100.315 272.408 99.949 271.919L69.0149 225.244V271.187C69.0149 272.53 68.5268 273.689 67.5505 274.665C66.5743 275.641 65.4151 276.129 64.0727 276.129H30.9421ZM64.6219 158.25L63.8897 156.786L62.6084 157.518L61.6932 159.532L64.0727 160.081L64.6219 158.25ZM46.3177 157.701C45.5855 157.457 45.0364 157.518 44.6703 157.884C44.3042 158.128 43.8771 158.616 43.389 159.349C42.5348 160.325 42.4128 161.301 43.0229 162.277C43.7551 163.254 44.7313 163.559 45.9516 163.192C46.6837 163.07 47.2329 162.887 47.599 162.643C47.965 162.277 48.1481 161.728 48.1481 160.996C48.1481 160.02 48.0261 159.349 47.782 158.983C47.66 158.494 47.1719 158.067 46.3177 157.701ZM119.168 157.884L117.521 158.616L117.704 160.63L119.534 160.081L120.45 158.983L119.168 157.884ZM112.945 161.911C112.701 161.057 112.396 160.447 112.03 160.081C111.786 159.715 111.237 159.532 110.382 159.532C109.406 159.532 108.674 159.715 108.186 160.081C107.698 160.325 107.332 160.874 107.088 161.728C106.722 162.704 106.661 163.437 106.905 163.925C107.149 164.413 107.698 164.962 108.552 165.572C109.284 166.06 109.894 166.243 110.382 166.121C110.87 165.999 111.481 165.694 112.213 165.206C113.189 164.352 113.433 163.254 112.945 161.911ZM63.3406 171.429C61.1441 171.063 59.2526 170.636 57.6663 170.148C56.0799 169.66 54.6766 169.599 53.4563 169.965C52.236 170.331 51.1378 171.49 50.1615 173.443C49.1853 175.395 48.8803 176.982 49.2463 178.202C49.7344 179.3 50.6497 180.337 51.992 181.314C53.3343 182.29 54.7986 183.571 56.385 185.158C58.3374 187.11 59.9238 188.574 61.1441 189.551C62.4864 190.527 64.4388 190.405 67.0014 189.184C69.9301 187.598 71.8215 186.134 72.6757 184.791C73.6519 183.327 73.896 180.948 73.4079 177.653C72.9198 174.724 71.8215 173.077 70.1131 172.711C68.5268 172.223 66.2692 171.795 63.3406 171.429ZM39.3621 172.528C39.118 171.551 38.7519 170.941 38.2638 170.697C37.7757 170.331 37.0435 170.087 36.0673 169.965C35.0911 169.843 34.4199 170.026 34.0538 170.514C33.8098 170.88 33.5047 171.49 33.1386 172.345C32.6505 173.687 32.8946 174.785 33.8708 175.639C34.603 176.372 35.2131 176.921 35.7012 177.287C36.1893 177.653 36.9215 177.592 37.8977 177.104C38.874 176.494 39.4231 175.883 39.5451 175.273C39.7892 174.663 39.7282 173.748 39.3621 172.528ZM118.802 169.965H116.606L115.691 171.246L116.789 172.711L118.436 171.979L118.802 169.965ZM122.097 174.358L119.901 174.724L119.351 176.921L121.548 178.019L122.28 176.188L122.097 174.358ZM111.481 175.09C110.748 174.724 110.199 174.724 109.833 175.09C109.589 175.456 109.223 175.883 108.735 176.372C108.125 177.104 107.576 177.653 107.088 178.019C106.722 178.263 106.722 178.751 107.088 179.483C107.698 180.459 108.186 181.131 108.552 181.497C109.04 181.741 109.833 181.802 110.932 181.68C112.03 181.436 112.762 181.07 113.128 180.581C113.494 180.093 113.738 179.3 113.86 178.202C113.982 177.226 113.86 176.555 113.494 176.188C113.128 175.822 112.457 175.456 111.481 175.09ZM136.74 183.876C136.496 182.656 136.069 181.924 135.459 181.68C134.849 181.314 133.934 181.07 132.714 180.948C131.493 180.826 130.639 181.009 130.151 181.497C129.785 181.863 129.358 182.595 128.87 183.693C128.504 184.547 128.443 185.219 128.687 185.707C129.053 186.195 129.602 186.744 130.334 187.354C131.188 188.086 131.859 188.635 132.347 189.001C132.958 189.245 133.69 189.123 134.544 188.635C135.642 187.903 136.374 187.232 136.74 186.622C137.107 186.012 137.107 185.097 136.74 183.876ZM116.24 191.747C115.141 190.893 114.043 190.832 112.945 191.564C111.725 192.418 111.298 193.516 111.664 194.859C111.786 195.591 112.091 196.018 112.579 196.14C113.067 196.14 113.738 196.14 114.592 196.14C115.569 196.14 116.24 195.652 116.606 194.676C116.85 193.944 116.972 193.394 116.972 193.028C117.094 192.662 116.85 192.235 116.24 191.747ZM50.8937 198.52C50.2836 198.031 49.7955 197.665 49.4294 197.421C49.0633 197.177 48.5142 197.299 47.782 197.787C47.0498 198.154 46.6837 198.581 46.6837 199.069C46.6837 199.557 46.7448 200.167 46.8668 200.899C47.1108 201.753 47.3549 202.363 47.599 202.73C47.843 202.974 48.3921 203.157 49.2463 203.279C49.9785 203.279 50.4666 203.157 50.7107 202.913C51.0768 202.547 51.3818 201.997 51.6259 201.265C52.114 200.167 51.8699 199.252 50.8937 198.52ZM75.6044 200.899C74.7502 199.679 73.957 199.008 73.2248 198.886C72.4927 198.764 71.3944 198.886 69.9301 199.252C68.4658 199.618 67.4285 200.106 66.8184 200.716C66.3303 201.204 66.0862 202.18 66.0862 203.645C66.0862 204.987 66.3303 205.902 66.8184 206.39C67.4285 206.879 68.4047 207.367 69.747 207.855C70.8453 208.221 71.6385 208.282 72.1266 208.038C72.7367 207.672 73.4079 207.001 74.1401 206.024C74.9943 205.048 75.6044 204.255 75.9705 203.645C76.4586 202.913 76.3366 201.997 75.6044 200.899ZM84.3904 201.265C83.1701 201.265 82.3769 201.509 82.0109 201.997C81.6448 202.486 81.2177 203.279 80.7296 204.377C80.2415 205.719 79.8754 206.818 79.6313 207.672C79.3873 208.404 79.8144 209.197 80.9126 210.051C81.8888 210.783 82.621 210.844 83.1091 210.234C83.7193 209.502 84.5734 208.709 85.6717 207.855C86.77 207.245 87.7462 206.818 88.6004 206.573C89.4546 206.207 89.6986 205.414 89.3325 204.194C88.9665 202.852 88.4173 202.058 87.6852 201.814C86.953 201.448 85.8547 201.265 84.3904 201.265ZM40.8264 205.841C40.5823 204.621 40.3993 203.645 40.2773 202.913C40.1552 202.18 39.4231 201.753 38.0808 201.631C36.8605 201.509 36.0063 201.753 35.5182 202.363C35.0301 202.974 34.542 203.889 34.0538 205.109C33.6878 206.085 33.6878 206.818 34.0538 207.306C34.542 207.672 35.2131 208.16 36.0673 208.77C36.7995 209.38 37.4096 209.807 37.8977 210.051C38.3858 210.295 39.057 210.173 39.9112 209.685C40.7654 209.075 41.1925 208.526 41.1925 208.038C41.3145 207.55 41.1925 206.818 40.8264 205.841ZM121.182 211.15C117.521 209.563 114.409 208.648 111.847 208.404C109.406 208.16 107.088 208.709 104.891 210.051C102.817 211.272 100.437 213.407 97.7525 216.458C95.556 218.898 94.7018 221.034 95.1899 222.864C95.678 224.695 96.7763 226.586 98.4846 228.538C100.315 230.369 102.084 232.687 103.793 235.494C105.623 238.545 107.271 240.619 108.735 241.718C110.321 242.816 112.823 242.938 116.24 242.084C120.389 241.107 123.5 240.131 125.575 239.155C127.771 238.179 129.053 235.555 129.419 231.284C129.663 227.623 129.785 224.573 129.785 222.132C129.785 219.691 129.175 217.617 127.954 215.909C126.856 214.078 124.599 212.492 121.182 211.15ZM62.0593 212.248C61.0831 211.272 60.2899 210.6 59.6797 210.234C59.0696 209.746 58.1544 209.746 56.9341 210.234C55.3477 210.844 54.2495 211.455 53.6393 212.065C53.1512 212.675 52.9682 213.773 53.0902 215.359C53.2122 216.824 53.6393 217.739 54.3715 218.105C55.2257 218.349 56.324 218.654 57.6663 219.02C59.1306 219.386 60.2289 219.63 60.961 219.752C61.8152 219.752 62.6084 219.142 63.3406 217.922C64.1948 216.702 64.3778 215.726 63.8897 214.993C63.5236 214.261 62.9135 213.346 62.0593 212.248ZM37.1656 217.19C37.1656 216.458 36.6164 215.909 35.5182 215.543C34.542 215.298 33.8708 215.482 33.5047 216.092C33.0166 216.702 32.6505 217.19 32.4065 217.556C32.2844 217.922 32.4065 218.41 32.7726 219.02C33.6268 219.997 34.725 220.241 36.0673 219.752C36.7995 219.508 37.1656 219.203 37.1656 218.837C37.1656 218.349 37.1656 217.8 37.1656 217.19ZM56.7511 225.061C56.1409 224.207 55.5308 223.962 54.9206 224.329C54.4325 224.573 53.7004 224.878 52.7241 225.244C51.992 225.488 51.4428 225.732 51.0768 225.976C50.7107 226.22 50.5276 226.708 50.5276 227.44C50.5276 228.172 50.7107 228.661 51.0768 228.905C51.4428 229.149 51.992 229.393 52.7241 229.637C53.5783 230.003 54.1885 230.247 54.5546 230.369C55.0427 230.369 55.5918 230.064 56.2019 229.454C56.8121 228.477 57.1782 227.745 57.3002 227.257C57.5442 226.647 57.3612 225.915 56.7511 225.061ZM39.9112 226.708C38.6909 226.342 37.7757 226.098 37.1656 225.976C36.5554 225.732 35.8843 226.098 35.1521 227.074C34.542 228.05 34.4199 228.844 34.786 229.454C35.1521 229.942 35.7012 230.674 36.4334 231.65C37.0435 232.504 37.5927 233.176 38.0808 233.664C38.5689 234.03 39.3621 234.03 40.4603 233.664C41.5586 233.176 42.2297 232.687 42.4738 232.199C42.8399 231.589 43.0229 230.674 43.0229 229.454C43.0229 228.477 42.7178 227.867 42.1077 227.623C41.6196 227.257 40.8874 226.952 39.9112 226.708ZM48.1481 240.253C47.904 239.521 47.5379 239.155 47.0498 239.155C46.5617 239.033 45.8906 238.972 45.0364 238.972C44.1822 238.972 43.45 238.972 42.8399 238.972C42.3518 238.972 41.9857 239.399 41.7416 240.253C41.4976 241.107 41.6196 241.657 42.1077 241.901C42.5958 242.145 43.2059 242.511 43.9381 242.999C44.4262 243.365 44.8533 243.67 45.2194 243.914C45.5855 244.036 46.0126 243.853 46.5007 243.365C47.2329 242.877 47.721 242.45 47.965 242.084C48.3311 241.718 48.3921 241.107 48.1481 240.253ZM38.2638 244.463C38.1418 243.487 37.8367 242.938 37.3486 242.816C36.8605 242.572 36.1283 242.328 35.1521 242.084C34.2979 241.962 33.5657 241.901 32.9556 241.901C32.4675 241.901 32.0404 242.267 31.6743 242.999C30.8201 244.463 30.9421 245.866 32.0404 247.209C32.7726 247.941 33.3827 248.429 33.8708 248.673C34.3589 248.795 35.0911 248.612 36.0673 248.124C37.6537 247.392 38.3858 246.172 38.2638 244.463ZM57.8493 246.294C56.507 246.05 55.5308 246.416 54.9206 247.392C54.4325 248.246 54.1275 248.917 54.0054 249.405C53.8834 249.893 54.1275 250.504 54.7376 251.236C55.3477 251.846 55.8969 252.151 56.385 252.151C56.8731 252.029 57.5442 251.785 58.3984 251.419C59.2526 251.053 59.8018 250.687 60.0458 250.32C60.4119 249.954 60.5339 249.344 60.4119 248.49C60.2899 247.636 60.0458 247.148 59.6797 247.026C59.3136 246.782 58.7035 246.538 57.8493 246.294ZM100.315 249.954L98.3016 251.053L98.4846 253.066L100.498 253.615L101.596 251.785L100.315 249.954ZM36.0673 255.812L34.4199 254.897L33.3217 256.361L34.0538 257.459H35.5182L36.0673 255.812ZM41.3755 259.107C40.7654 258.496 40.0942 258.374 39.3621 258.74C38.7519 259.107 38.2638 259.412 37.8977 259.656C37.6537 259.778 37.5927 260.205 37.7147 260.937C37.8367 261.547 38.0808 261.852 38.4469 261.852C38.935 261.852 39.4841 261.913 40.0942 262.035C40.7044 262.157 41.1925 262.218 41.5586 262.218C41.9247 262.218 42.2297 261.913 42.4738 261.303C42.7178 260.815 42.7178 260.449 42.4738 260.205C42.2297 259.961 41.8636 259.595 41.3755 259.107ZM57.1171 260.571C56.2629 259.351 55.4088 258.74 54.5546 258.74C53.8224 258.618 52.7241 258.801 51.2598 259.29C49.9175 259.778 49.0023 260.327 48.5142 260.937C48.1481 261.547 47.965 262.523 47.965 263.866C47.965 265.33 48.1481 266.428 48.5142 267.16C48.8803 267.771 49.7344 268.32 51.0768 268.808C52.7851 269.296 54.1275 269.662 55.1037 269.906C56.0799 270.028 57.1171 269.357 58.2154 267.893C59.3136 266.428 59.6797 265.208 59.3137 264.232C58.9476 263.255 58.2154 262.035 57.1171 260.571ZM108.186 261.669L106.355 261.12L104.891 262.401L106.172 264.049L107.82 263.5L108.186 261.669ZM128.87 267.16L127.588 265.879L126.124 266.977L126.49 268.625L128.137 268.808L128.87 267.16Z" fill="#2C479D"/>
<path d="M204.827 307.843C197.871 307.843 191.709 306.561 186.339 303.999C180.97 301.436 176.76 297.958 173.709 293.565C170.781 289.172 169.316 284.23 169.316 278.739C169.316 269.831 172.916 262.875 180.116 257.872C187.438 252.747 197.2 249.147 209.403 247.073L228.805 243.778C228.805 240.605 228.5 238.287 227.89 236.822C227.402 235.358 225.876 234.626 223.314 234.626C221.605 234.626 220.202 234.992 219.104 235.724C218.128 236.334 217.029 237.249 215.809 238.47C214.467 239.812 212.758 240.483 210.684 240.483H179.567C178.347 240.483 177.309 240.117 176.455 239.385C175.723 238.653 175.418 237.677 175.54 236.456C175.662 234.138 176.638 231.453 178.469 228.402C180.299 225.23 183.106 222.179 186.889 219.25C190.793 216.322 195.736 213.881 201.715 211.929C207.816 209.976 215.138 209 223.68 209C240.276 209 252.601 212.478 260.654 219.433C268.708 226.267 272.735 235.968 272.735 248.537V301.07C272.735 302.412 272.247 303.572 271.271 304.548C270.295 305.524 269.135 306.012 267.793 306.012H235.761C234.418 306.012 233.259 305.524 232.283 304.548C231.307 303.572 230.819 302.412 230.819 301.07V295.945C228.134 299.606 224.534 302.534 220.019 304.731C215.626 306.805 210.562 307.843 204.827 307.843ZM219.836 213.759H218.006L217.09 214.857L217.823 216.505L219.653 215.773L219.836 213.759ZM212.148 217.237C211.05 216.871 210.135 216.627 209.403 216.505C208.793 216.261 208.182 216.566 207.572 217.42C206.84 218.518 206.535 219.372 206.657 219.983C206.901 220.593 207.389 221.386 208.121 222.362C208.732 223.216 209.281 223.643 209.769 223.643C210.379 223.521 211.172 223.277 212.148 222.911C213.491 222.545 214.162 221.63 214.162 220.166C214.162 218.579 213.491 217.603 212.148 217.237ZM242.899 218.701C242.411 217.603 241.496 217.115 240.154 217.237C238.811 217.359 238.018 218.03 237.774 219.25C237.652 220.105 237.591 220.776 237.591 221.264C237.591 221.752 237.957 222.24 238.689 222.728C239.544 223.094 240.154 223.216 240.52 223.094C241.008 222.972 241.618 222.606 242.35 221.996C243.326 221.142 243.51 220.044 242.899 218.701ZM231.917 223.094C230.453 223.094 229.476 223.826 228.988 225.291C228.744 226.023 228.744 226.572 228.988 226.938C229.232 227.182 229.659 227.548 230.269 228.036C231.124 228.769 232.039 228.83 233.015 228.219C233.747 227.731 233.991 226.877 233.747 225.657C233.503 224.925 233.32 224.315 233.198 223.826C233.076 223.338 232.649 223.094 231.917 223.094ZM192.929 223.826C192.197 223.338 191.587 223.216 191.098 223.46C190.732 223.704 190.183 224.131 189.451 224.742C188.841 225.352 188.353 225.84 187.987 226.206C187.743 226.572 187.743 227.182 187.987 228.036C188.353 228.891 188.719 229.501 189.085 229.867C189.573 230.233 190.305 230.355 191.282 230.233C192.258 230.111 192.929 229.867 193.295 229.501C193.661 229.135 193.905 228.463 194.027 227.487C194.271 226.511 194.332 225.779 194.21 225.291C194.21 224.803 193.783 224.315 192.929 223.826ZM256.078 230.233L254.431 230.782L252.967 231.88L254.614 232.429L256.261 232.246L256.078 230.233ZM248.391 233.711C247.658 233.101 247.048 232.673 246.56 232.429C246.194 232.063 245.584 232.124 244.73 232.612C243.998 233.101 243.693 233.65 243.815 234.26C244.059 234.748 244.303 235.419 244.547 236.273C244.791 237.127 244.974 237.86 245.096 238.47C245.218 239.08 245.706 239.385 246.56 239.385C247.658 239.385 248.452 239.263 248.94 239.019C249.428 238.775 249.916 238.165 250.404 237.188C250.648 236.212 250.526 235.541 250.038 235.175C249.672 234.809 249.123 234.321 248.391 233.711ZM197.688 234.077L195.675 232.429L193.844 233.894L194.393 236.273L196.407 235.724L197.688 234.077ZM237.408 237.738L235.761 235.541L234.113 237.555L234.296 239.385L236.31 239.934L237.408 237.738ZM264.681 243.961C263.949 243.229 263.339 242.741 262.851 242.497C262.363 242.253 261.692 242.375 260.837 242.863C259.861 243.351 259.251 243.9 259.007 244.51C258.885 244.998 258.885 245.73 259.007 246.707C259.251 247.683 259.556 248.293 259.922 248.537C260.41 248.659 261.143 248.781 262.119 248.903C262.973 249.025 263.583 249.025 263.949 248.903C264.437 248.781 264.864 248.293 265.23 247.439C265.963 246.097 265.78 244.937 264.681 243.961ZM245.096 250.184L243.815 248.903L242.167 250.551L243.448 252.564L245.462 251.832L245.096 250.184ZM210.501 252.381C209.647 251.405 208.548 251.161 207.206 251.649C206.352 251.893 205.742 252.198 205.376 252.564C205.132 252.808 205.01 253.357 205.01 254.211C205.01 255.066 205.193 255.615 205.559 255.859C205.925 256.103 206.535 256.347 207.389 256.591C208.243 256.957 208.915 257.201 209.403 257.323C210.013 257.445 210.562 257.079 211.05 256.225C211.66 255.493 211.843 254.883 211.599 254.394C211.477 253.906 211.111 253.235 210.501 252.381ZM238.323 252.564L236.676 252.747L235.761 253.845L236.859 255.31L238.323 254.211V252.564ZM196.956 254.761C195.98 254.516 195.247 254.577 194.759 254.944C194.393 255.188 193.966 255.737 193.478 256.591C192.868 257.323 192.441 257.994 192.197 258.604C192.075 259.092 192.319 259.703 192.929 260.435C193.539 261.167 194.088 261.533 194.576 261.533C195.064 261.411 195.797 261.167 196.773 260.801C198.115 260.313 198.786 259.459 198.786 258.238C198.786 257.262 198.725 256.53 198.603 256.042C198.481 255.432 197.932 255.005 196.956 254.761ZM262.851 262.265C262.119 259.703 261.021 258.238 259.556 257.872C258.214 257.384 256.2 257.079 253.516 256.957C250.831 256.835 248.818 257.018 247.475 257.506C246.133 257.872 245.035 259.276 244.181 261.716C243.082 264.645 242.472 267.024 242.35 268.855C242.228 270.563 243.448 272.333 246.011 274.163C248.33 275.993 250.16 276.359 251.502 275.261C252.845 274.163 254.736 272.76 257.177 271.051C259.373 269.587 261.021 268.367 262.119 267.39C263.339 266.414 263.583 264.706 262.851 262.265ZM183.96 262.265C183.106 262.265 182.496 262.326 182.129 262.448C181.763 262.57 181.397 262.997 181.031 263.73C180.665 264.706 180.36 265.56 180.116 266.292C179.872 266.902 180.177 267.512 181.031 268.123C182.007 268.977 182.801 269.465 183.411 269.587C184.143 269.709 185.058 269.404 186.156 268.672C187.255 268.062 187.804 267.451 187.804 266.841C187.804 266.109 187.621 265.133 187.255 263.913C187.133 263.058 186.766 262.631 186.156 262.631C185.668 262.509 184.936 262.387 183.96 262.265ZM207.023 265.56C205.803 265.072 204.827 265.194 204.094 265.926C203.362 266.658 203.301 267.634 203.911 268.855C204.522 269.831 205.315 270.258 206.291 270.136C207.145 270.014 207.755 269.892 208.121 269.77C208.487 269.526 208.732 268.977 208.854 268.123C208.976 267.39 208.854 266.902 208.487 266.658C208.243 266.292 207.755 265.926 207.023 265.56ZM217.457 280.752C220.995 280.752 223.863 279.593 226.06 277.275C228.256 274.956 229.354 271.356 229.354 266.475L218.555 268.855C215.382 269.587 213.247 270.563 212.148 271.783C211.05 273.004 210.501 274.285 210.501 275.627C210.501 276.97 211.05 278.19 212.148 279.288C213.369 280.264 215.138 280.752 217.457 280.752ZM184.326 273.98C182.251 273.492 180.665 273.431 179.567 273.797C178.469 274.163 177.37 275.261 176.272 277.092C175.296 278.678 175.296 279.837 176.272 280.569C177.37 281.302 178.53 282.339 179.75 283.681C180.604 284.657 181.336 285.329 181.946 285.695C182.679 285.939 183.655 285.817 184.875 285.329C186.705 284.474 188.17 283.925 189.268 283.681C190.488 283.315 191.037 282.095 190.915 280.02C190.671 277.824 190.061 276.42 189.085 275.81C188.109 275.078 186.522 274.468 184.326 273.98ZM203.728 278.19C203.118 277.336 202.508 277.031 201.898 277.275C201.166 277.397 200.617 277.58 200.251 277.824C200.007 277.946 199.884 278.373 199.884 279.105C199.884 279.715 200.068 280.081 200.434 280.203C200.922 280.203 201.471 280.325 202.081 280.569C202.813 280.813 203.362 280.63 203.728 280.02C204.216 279.41 204.216 278.8 203.728 278.19ZM246.56 278.922L244.73 277.641L243.448 279.105L243.815 280.752H245.645L246.56 278.922ZM237.957 284.413C237.591 283.681 237.164 283.315 236.676 283.315C236.188 283.315 235.517 283.376 234.662 283.498C233.564 283.742 232.893 284.413 232.649 285.512C232.527 286.488 233.015 287.281 234.113 287.891C234.846 288.257 235.639 288.074 236.493 287.342C237.103 286.732 237.591 286.305 237.957 286.061C238.323 285.695 238.323 285.145 237.957 284.413ZM261.204 286.427C261.082 285.451 260.471 284.84 259.373 284.596C258.763 284.474 258.275 284.413 257.909 284.413C257.543 284.413 257.177 284.718 256.811 285.329C256.078 286.549 256.139 287.586 256.994 288.44C257.482 288.928 257.909 289.05 258.275 288.806C258.641 288.562 259.129 288.318 259.739 288.074C260.227 287.83 260.593 287.647 260.837 287.525C261.082 287.281 261.204 286.915 261.204 286.427ZM210.318 290.088C209.83 288.745 209.22 287.952 208.487 287.708C207.755 287.342 206.657 287.159 205.193 287.159C203.972 287.159 203.179 287.464 202.813 288.074C202.447 288.684 202.081 289.599 201.715 290.82C201.349 292.284 201.044 293.443 200.8 294.298C200.556 295.03 201.044 295.823 202.264 296.677C203.362 297.409 204.216 297.47 204.827 296.86C205.437 296.128 206.291 295.335 207.389 294.481C208.487 293.626 209.342 293.016 209.952 292.65C210.684 292.162 210.806 291.308 210.318 290.088ZM248.574 288.623C247.841 288.013 247.17 287.708 246.56 287.708C246.072 287.586 245.462 287.83 244.73 288.44C243.387 289.538 243.021 290.881 243.632 292.467C243.998 293.321 244.425 293.809 244.913 293.931C245.401 293.931 246.133 293.931 247.109 293.931C248.33 293.809 249.123 293.138 249.489 291.918C249.611 291.064 249.672 290.393 249.672 289.905C249.672 289.416 249.306 288.989 248.574 288.623ZM218.006 295.396L215.992 293.931L214.528 295.213L213.979 297.226L216.358 297.043L218.006 295.396ZM192.746 294.481C191.77 294.115 191.098 294.176 190.732 294.664C190.488 295.152 190.061 295.762 189.451 296.494C188.963 297.104 188.597 297.592 188.353 297.958C188.109 298.324 188.17 298.813 188.536 299.423C189.146 300.521 190.183 300.948 191.648 300.704C192.624 300.46 193.356 300.277 193.844 300.155C194.332 299.911 194.637 299.301 194.759 298.324C194.881 297.226 194.82 296.433 194.576 295.945C194.332 295.335 193.722 294.847 192.746 294.481ZM244.181 299.423L243.082 297.592L241.252 299.423L242.35 301.436L243.998 300.521L244.181 299.423ZM260.288 299.057L258.641 299.606L257.726 300.704L259.007 301.619L260.288 300.704V299.057Z" fill="#2C479D"/>
<path d="M305.677 275.96C304.335 275.96 303.176 275.472 302.2 274.496C301.223 273.519 300.735 272.36 300.735 271.018V150.942C300.735 149.6 301.223 148.441 302.2 147.464C303.176 146.488 304.335 146 305.677 146H338.442C339.784 146 340.943 146.488 341.92 147.464C342.896 148.441 343.384 149.6 343.384 150.942V271.018C343.384 272.36 342.896 273.519 341.92 274.496C340.943 275.472 339.784 275.96 338.442 275.96H305.677ZM326.544 150.942L324.897 150.393L323.798 151.857L324.897 152.956L326.361 152.773L326.544 150.942ZM320.321 152.04C319.466 151.064 318.307 150.82 316.843 151.308C316.233 151.552 315.928 151.918 315.928 152.406C315.928 152.773 315.928 153.383 315.928 154.237C315.928 155.091 316.416 155.64 317.392 155.884C318.49 156.128 319.283 155.945 319.772 155.335C320.26 154.603 320.565 154.054 320.687 153.688C320.931 153.2 320.809 152.651 320.321 152.04ZM338.259 152.223L337.161 151.491L335.696 152.223L336.428 153.688H338.076L338.259 152.223ZM336.611 165.219C335.879 163.877 335.147 163.145 334.415 163.023C333.683 162.779 332.585 162.779 331.12 163.023C329.778 163.267 328.802 163.633 328.191 164.121C327.703 164.609 327.337 165.524 327.093 166.867C326.971 168.209 327.093 169.185 327.459 169.795C327.947 170.284 328.802 170.772 330.022 171.26C331.486 172.114 332.646 172.846 333.5 173.456C334.354 173.944 335.391 173.578 336.611 172.358C337.954 171.138 338.503 170.04 338.259 169.063C338.015 168.087 337.466 166.806 336.611 165.219ZM318.673 169.795C317.331 168.697 316.233 167.843 315.379 167.233C314.646 166.623 313.609 166.806 312.267 167.782C310.803 168.758 310.07 169.734 310.07 170.711C310.192 171.687 310.497 173.029 310.986 174.738C311.474 176.324 312.023 177.483 312.633 178.215C313.243 178.826 314.341 179.131 315.928 179.131C317.392 179.131 318.246 178.704 318.49 177.849C318.734 176.995 319.1 175.897 319.589 174.555C319.955 173.334 320.138 172.419 320.138 171.809C320.138 171.199 319.65 170.528 318.673 169.795ZM338.442 179.314C337.71 178.459 337.039 178.032 336.428 178.032C335.94 178.032 335.147 178.215 334.049 178.581C333.195 178.948 332.768 179.375 332.768 179.863C332.768 180.351 332.768 181.083 332.768 182.059C332.768 183.036 332.768 183.829 332.768 184.439C332.89 184.927 333.439 185.293 334.415 185.537C335.391 185.903 336.123 185.964 336.611 185.72C337.222 185.354 337.832 184.744 338.442 183.89C339.052 182.913 339.357 182.12 339.357 181.51C339.479 180.9 339.174 180.168 338.442 179.314ZM312.267 183.341C311.779 182.852 311.352 182.547 310.986 182.425C310.619 182.181 310.192 182.242 309.704 182.608C308.484 183.341 307.996 184.317 308.24 185.537C308.606 186.635 309.46 187.245 310.803 187.367C311.657 187.367 312.328 187.367 312.816 187.367C313.426 187.367 313.914 186.94 314.28 186.086C314.524 185.354 314.402 184.866 313.914 184.622C313.426 184.256 312.877 183.829 312.267 183.341ZM318.307 191.577C317.941 191.089 317.636 190.906 317.392 191.028C317.148 191.15 316.782 191.333 316.294 191.577C315.562 191.822 315.257 192.31 315.379 193.042C315.501 193.896 315.867 194.384 316.477 194.506C317.087 194.628 317.575 194.75 317.941 194.872C318.307 194.872 318.612 194.567 318.856 193.957C319.344 193.225 319.161 192.432 318.307 191.577ZM338.625 192.493H335.879V195.055L337.71 196.52L339.906 194.872L338.625 192.493ZM328.558 204.94C328.558 203.475 327.764 202.499 326.178 202.011C324.714 201.523 323.493 201.828 322.517 202.926C322.029 203.658 321.968 204.207 322.334 204.573C322.7 204.94 323.127 205.428 323.615 206.038C323.982 206.648 324.287 207.075 324.531 207.319C324.897 207.563 325.385 207.563 325.995 207.319C326.849 207.075 327.459 206.831 327.825 206.587C328.314 206.343 328.558 205.794 328.558 204.94ZM310.253 207.868C309.887 206.648 309.216 206.038 308.24 206.038C307.63 206.038 307.264 206.221 307.142 206.587C307.02 206.953 306.837 207.441 306.593 208.051C306.348 208.783 306.593 209.394 307.325 209.882C308.057 210.492 308.728 210.614 309.338 210.248C310.314 209.638 310.619 208.844 310.253 207.868ZM320.321 209.516C320.199 208.051 319.528 207.197 318.307 206.953C317.575 206.709 317.087 206.77 316.843 207.136C316.599 207.502 316.294 207.99 315.928 208.6C315.562 209.211 315.318 209.699 315.196 210.065C315.073 210.309 315.196 210.736 315.562 211.346C316.05 211.834 316.477 212.078 316.843 212.078C317.209 211.956 317.697 211.773 318.307 211.529C318.917 211.285 319.405 211.102 319.772 210.98C320.138 210.736 320.321 210.248 320.321 209.516ZM337.344 208.6C336.611 207.868 335.635 207.868 334.415 208.6C333.317 209.211 332.829 210.004 332.951 210.98C333.195 211.712 333.378 212.322 333.5 212.81C333.744 213.176 334.293 213.42 335.147 213.543C335.879 213.665 336.306 213.481 336.428 212.993C336.55 212.505 336.794 211.895 337.161 211.163C337.405 210.553 337.588 210.065 337.71 209.699C337.954 209.333 337.832 208.966 337.344 208.6ZM328.375 225.806C328.008 223.244 327.459 221.413 326.727 220.315C326.117 219.217 324.531 218.424 321.968 217.936C319.283 217.447 317.27 217.447 315.928 217.936C314.585 218.302 313.304 219.705 312.084 222.145C310.619 224.586 309.948 226.538 310.07 228.003C310.314 229.467 311.413 231.176 313.365 233.128C315.196 235.202 316.843 236.362 318.307 236.606C319.772 236.85 321.785 236.362 324.348 235.141C326.666 234.043 327.947 232.884 328.191 231.664C328.558 230.321 328.619 228.369 328.375 225.806ZM335.879 221.779C335.269 221.047 334.476 220.864 333.5 221.23C332.89 221.474 332.585 222.084 332.585 223.061C332.585 223.671 332.585 224.159 332.585 224.525C332.585 224.891 332.89 225.135 333.5 225.257C334.11 225.501 334.537 225.501 334.781 225.257C335.025 224.891 335.269 224.464 335.513 223.976C336.123 223.122 336.245 222.39 335.879 221.779ZM332.951 248.137C332.096 245.819 331.242 244.172 330.388 243.195C329.534 242.097 327.825 241.609 325.263 241.731C322.578 241.853 320.687 242.402 319.589 243.378C318.612 244.233 317.758 245.88 317.026 248.32C316.416 250.517 316.66 252.042 317.758 252.897C318.856 253.629 320.382 254.605 322.334 255.825C323.676 256.801 324.775 257.229 325.629 257.107C326.605 256.984 327.764 256.374 329.107 255.276C330.693 254.056 331.913 253.08 332.768 252.347C333.622 251.493 333.683 250.09 332.951 248.137ZM311.352 245.941C310.741 244.843 309.887 244.416 308.789 244.66C308.179 244.782 307.813 245.087 307.691 245.575C307.691 245.941 307.63 246.429 307.508 247.039C307.386 248.137 307.691 248.87 308.423 249.236C308.911 249.48 309.277 249.48 309.521 249.236C309.765 248.992 310.07 248.626 310.436 248.137C310.803 247.771 311.108 247.466 311.352 247.222C311.718 246.978 311.718 246.551 311.352 245.941ZM313.548 256.74C313.426 255.52 312.877 254.788 311.901 254.544C311.047 254.422 310.314 254.849 309.704 255.825C309.338 256.313 309.216 256.679 309.338 256.923C309.582 257.168 309.887 257.473 310.253 257.839C310.619 258.327 310.925 258.754 311.169 259.12C311.413 259.486 311.779 259.547 312.267 259.303C313.243 258.937 313.67 258.083 313.548 256.74ZM333.5 264.611C333.256 263.879 333.012 263.33 332.768 262.964C332.646 262.476 332.218 262.232 331.486 262.232C330.632 262.232 330.083 262.415 329.839 262.781C329.595 263.147 329.351 263.757 329.107 264.611C328.619 265.954 328.863 266.93 329.839 267.54C330.449 268.028 330.937 268.211 331.303 268.089C331.791 267.967 332.34 267.662 332.951 267.174C333.805 266.564 333.988 265.709 333.5 264.611ZM308.606 265.893C307.63 265.648 306.837 265.526 306.226 265.526C305.738 265.404 305.25 265.709 304.762 266.442C304.274 267.296 304.152 267.967 304.396 268.455C304.64 268.821 305.067 269.37 305.677 270.102C306.287 270.957 306.776 271.567 307.142 271.933C307.63 272.177 308.301 272.177 309.155 271.933C310.131 271.567 310.68 271.14 310.803 270.652C310.925 270.041 310.986 269.248 310.986 268.272C310.986 267.418 310.741 266.869 310.253 266.625C309.887 266.381 309.338 266.137 308.606 265.893ZM322.151 267.906L320.504 267.723L319.955 269.37L321.419 270.469L323.249 269.553L322.151 267.906Z" fill="#2C479D"/>
<path d="M406.894 301.012C400.793 301.012 394.996 299.548 389.505 296.619C384.136 293.691 379.743 289.176 376.326 283.074C373.031 276.973 371.384 269.102 371.384 259.462V208.942C371.384 207.6 371.872 206.441 372.848 205.464C373.825 204.488 374.984 204 376.326 204H411.287C412.629 204 413.789 204.488 414.765 205.464C415.741 206.441 416.229 207.6 416.229 208.942V258.18C416.229 264.892 419.28 268.248 425.381 268.248C431.483 268.248 434.533 264.892 434.533 258.18V208.942C434.533 207.6 435.022 206.441 435.998 205.464C436.974 204.488 438.133 204 439.476 204H474.254C475.596 204 476.755 204.488 477.731 205.464C478.708 206.441 479.196 207.6 479.196 208.942V294.24C479.196 295.582 478.708 296.741 477.731 297.718C476.755 298.694 475.596 299.182 474.254 299.182H442.221C440.879 299.182 439.72 298.694 438.743 297.718C437.767 296.741 437.279 295.582 437.279 294.24V288.199C434.228 292.714 430.018 296.009 424.649 298.084C419.28 300.036 413.362 301.012 406.894 301.012ZM406.528 208.393C405.308 208.271 404.454 208.454 403.965 208.942C403.599 209.43 403.233 210.223 402.867 211.322C402.379 212.298 402.257 213.03 402.501 213.518C402.745 214.006 403.233 214.616 403.965 215.349C404.82 216.081 405.491 216.63 405.979 216.996C406.589 217.24 407.382 217.118 408.358 216.63C409.457 216.02 410.006 215.41 410.006 214.799C410.128 214.067 410.006 213.152 409.64 212.054C409.396 210.834 409.091 209.979 408.725 209.491C408.48 208.881 407.748 208.515 406.528 208.393ZM445.516 210.04L443.686 209.308L442.221 210.406L443.136 211.688L444.418 211.871L445.516 210.04ZM463.82 216.264C462.234 214.433 460.83 213.579 459.61 213.701C458.39 213.701 456.682 214.128 454.485 214.983C451.678 215.959 449.421 216.752 447.712 217.362C446.126 217.85 445.394 219.498 445.516 222.304C445.638 225.477 446.37 227.551 447.712 228.528C449.177 229.504 451.434 230.419 454.485 231.273C457.048 232.005 458.817 231.883 459.793 230.907C460.892 229.931 462.173 228.284 463.637 225.965C464.979 224.013 465.712 222.426 465.834 221.206C465.956 219.864 465.285 218.216 463.82 216.264ZM395.362 218.094C393.898 216.63 392.617 215.898 391.519 215.898C390.542 215.898 389.139 216.325 387.309 217.179C385.478 218.033 384.197 218.887 383.465 219.742C382.855 220.596 382.672 221.999 382.916 223.952C383.16 225.904 383.709 227.246 384.563 227.979C385.417 228.589 386.821 229.077 388.773 229.443C390.481 229.809 391.641 229.687 392.251 229.077C392.983 228.345 393.776 227.185 394.63 225.599C395.607 224.013 396.278 222.731 396.644 221.755C397.01 220.779 396.583 219.559 395.362 218.094ZM442.404 217.179L440.574 216.63L439.11 217.362L439.659 218.826L441.672 219.376L442.404 217.179ZM468.396 232.738L467.115 232.188L466.566 233.653L467.298 235.117L468.396 233.836V232.738ZM407.809 235.666C407.321 234.812 406.711 234.446 405.979 234.568C405.125 234.812 404.698 235.483 404.698 236.581C404.698 237.192 404.637 237.741 404.515 238.229C404.515 238.595 404.881 238.9 405.613 239.144C406.467 239.51 407.077 239.693 407.443 239.693C407.931 239.571 408.419 239.144 408.908 238.412C409.396 237.924 409.457 237.497 409.091 237.131C408.725 236.765 408.297 236.276 407.809 235.666ZM470.776 241.158C470.776 240.303 470.715 239.693 470.593 239.327C470.593 238.839 470.227 238.534 469.494 238.412C468.64 238.168 467.969 238.107 467.481 238.229C466.993 238.229 466.505 238.595 466.017 239.327C465.529 240.059 465.407 240.669 465.651 241.158C465.895 241.524 466.261 242.073 466.749 242.805C467.237 243.415 467.664 243.842 468.03 244.086C468.396 244.208 468.945 244.147 469.678 243.903C470.41 243.659 470.776 243.354 470.776 242.988C470.776 242.5 470.776 241.89 470.776 241.158ZM444.967 238.595C443.991 238.107 443.258 238.229 442.77 238.961C442.404 239.327 442.282 239.632 442.404 239.876C442.526 240.12 442.709 240.486 442.953 240.974C443.319 241.585 443.564 242.134 443.686 242.622C443.808 243.11 444.174 243.293 444.784 243.171C445.516 242.927 445.821 242.622 445.699 242.256C445.577 241.768 445.577 241.158 445.699 240.425C445.821 239.449 445.577 238.839 444.967 238.595ZM384.197 241.158C383.709 240.547 383.221 240.242 382.733 240.242C382.366 240.12 381.756 240.12 380.902 240.242C379.926 240.486 379.377 241.28 379.255 242.622C379.133 243.354 379.621 243.964 380.719 244.452C381.573 244.818 382.244 244.696 382.733 244.086C383.343 243.476 383.831 243.049 384.197 242.805C384.563 242.439 384.563 241.89 384.197 241.158ZM456.498 246.832C456.132 246.222 455.827 245.795 455.583 245.551C455.339 245.184 454.851 245.123 454.119 245.367C453.021 245.734 452.472 246.588 452.472 247.93C452.472 248.906 453.082 249.577 454.302 249.944C455.156 250.188 455.888 249.883 456.498 249.028C456.987 248.296 456.987 247.564 456.498 246.832ZM411.47 246.832L409.64 246.1L408.175 247.198L409.274 248.479L411.287 249.211L411.47 246.832ZM392.8 252.506C392.678 251.164 392.19 250.432 391.336 250.31C390.481 250.188 389.383 250.005 388.041 249.761C387.065 249.394 386.271 249.272 385.661 249.394C385.173 249.516 384.624 250.005 384.014 250.859C383.404 251.835 383.038 252.689 382.916 253.421C382.794 254.031 383.16 254.764 384.014 255.618C384.746 256.594 385.417 257.143 386.027 257.265C386.759 257.387 387.736 257.204 388.956 256.716C390.298 256.228 391.275 255.801 391.885 255.435C392.617 254.947 392.922 253.97 392.8 252.506ZM469.861 252.506C469.006 251.896 468.274 251.652 467.664 251.774C467.176 251.896 466.505 252.262 465.651 252.872C464.918 253.36 464.491 253.848 464.369 254.337C464.369 254.825 464.491 255.496 464.735 256.35C464.979 257.326 465.224 257.997 465.468 258.363C465.834 258.73 466.444 258.913 467.298 258.913C468.762 258.913 469.8 258.18 470.41 256.716C470.776 255.74 470.959 255.008 470.959 254.52C471.081 253.909 470.715 253.238 469.861 252.506ZM403.965 258.363C403.721 257.753 403.477 257.265 403.233 256.899C402.989 256.533 402.562 256.411 401.952 256.533C400.976 256.655 400.244 256.777 399.755 256.899C399.267 257.021 398.901 257.57 398.657 258.547C398.535 259.523 398.596 260.255 398.84 260.743C399.206 261.109 399.878 261.536 400.854 262.024C401.586 262.39 402.074 262.39 402.318 262.024C402.684 261.658 403.172 261.231 403.782 260.743C404.393 260.133 404.454 259.34 403.965 258.363ZM452.655 260.377L450.641 261.292L451.19 263.489L453.387 263.855L453.57 262.024L452.655 260.377ZM387.675 266.966C386.943 265.868 386.027 265.502 384.929 265.868C383.587 266.234 382.916 266.966 382.916 268.065C382.916 269.407 383.526 270.322 384.746 270.81C385.356 271.054 385.783 270.993 386.027 270.627C386.271 270.261 386.576 269.834 386.943 269.346C387.309 268.858 387.614 268.492 387.858 268.248C388.102 267.882 388.041 267.455 387.675 266.966ZM454.302 272.275C453.448 270.444 452.716 268.98 452.105 267.882C451.495 266.783 450.153 266.356 448.079 266.6C446.004 266.844 444.906 267.638 444.784 268.98C444.662 270.2 444.418 271.848 444.052 273.922C443.686 275.752 443.38 277.217 443.136 278.315C442.892 279.413 443.625 280.451 445.333 281.427C447.163 282.403 448.567 282.708 449.543 282.342C450.641 281.976 451.983 281.061 453.57 279.596C454.912 278.376 455.522 277.278 455.4 276.302C455.4 275.325 455.034 273.983 454.302 272.275ZM465.651 267.149C464.674 267.027 463.942 267.088 463.454 267.333C462.966 267.455 462.539 267.943 462.173 268.797C461.807 269.529 461.746 270.139 461.99 270.627C462.356 270.993 462.844 271.481 463.454 272.092C464.186 272.702 464.735 273.19 465.101 273.556C465.59 273.922 466.2 273.922 466.932 273.556C468.03 272.946 468.762 272.397 469.128 271.909C469.494 271.42 469.617 270.627 469.494 269.529C469.25 268.431 468.823 267.821 468.213 267.699C467.603 267.455 466.749 267.272 465.651 267.149ZM403.05 273.556C402.44 271.848 402.013 270.505 401.769 269.529C401.647 268.431 400.671 267.882 398.84 267.882C397.132 267.882 396.156 268.431 395.912 269.529C395.668 270.505 395.301 271.848 394.813 273.556C394.447 274.776 394.386 275.691 394.63 276.302C394.996 276.79 395.668 277.4 396.644 278.132C397.62 278.864 398.413 279.23 399.023 279.23C399.633 279.108 400.427 278.742 401.403 278.132C402.379 277.4 402.989 276.729 403.233 276.119C403.477 275.508 403.416 274.654 403.05 273.556ZM422.636 276.119L420.988 275.02L419.89 276.668L420.439 278.681L422.27 277.766L422.636 276.119ZM419.158 282.891C418.67 282.647 418.243 282.647 417.877 282.891C417.633 283.013 417.328 283.318 416.961 283.806C416.473 284.294 416.107 284.722 415.863 285.088C415.619 285.332 415.68 285.759 416.046 286.369C416.412 287.101 416.778 287.589 417.144 287.833C417.511 288.077 418.06 288.138 418.792 288.016C419.524 287.894 419.951 287.65 420.073 287.284C420.195 286.796 420.317 286.125 420.439 285.271C420.561 284.172 420.134 283.379 419.158 282.891ZM433.069 285.271C432.825 284.294 432.337 283.806 431.605 283.806C430.995 283.684 430.14 283.562 429.042 283.44C427.944 283.318 427.029 283.196 426.297 283.074C425.564 282.83 424.954 283.196 424.466 284.172C423.978 285.393 423.856 286.369 424.1 287.101C424.344 287.711 424.893 288.443 425.747 289.298C426.602 290.03 427.273 290.213 427.761 289.847C428.249 289.359 428.981 288.87 429.957 288.382C430.934 287.894 431.727 287.528 432.337 287.284C432.947 287.04 433.191 286.369 433.069 285.271ZM413.118 288.382C412.629 287.772 412.141 287.528 411.653 287.65C411.287 287.772 410.738 287.955 410.006 288.199C409.152 288.443 408.48 288.687 407.992 288.931C407.626 289.054 407.443 289.542 407.443 290.396C407.443 291.25 407.687 291.799 408.175 292.043C408.664 292.165 409.274 292.287 410.006 292.409C410.982 292.775 411.714 293.019 412.202 293.141C412.69 293.263 413.24 292.958 413.85 292.226C414.338 291.494 414.46 290.884 414.216 290.396C414.094 289.786 413.728 289.115 413.118 288.382ZM401.037 289.664C400.549 288.687 399.694 288.321 398.474 288.565C397.62 288.687 397.01 288.87 396.644 289.115C396.278 289.359 396.034 289.847 395.912 290.579C395.79 291.311 395.973 291.738 396.461 291.86C396.949 291.982 397.498 292.165 398.108 292.409C398.596 292.653 399.023 292.836 399.389 292.958C399.755 293.08 400.122 292.897 400.488 292.409C401.342 291.433 401.525 290.518 401.037 289.664ZM450.092 293.691L448.811 291.86L447.346 293.141L447.163 294.423L448.628 294.789L450.092 293.691Z" fill="#2C479D"/>
<path d="M304.945 309.88C297.231 313.28 289.899 317.612 283.201 322.149C281.903 323.029 280.613 323.933 279.324 324.849C270.641 331.021 262.12 337.861 253 343.524C256.966 346.434 260.853 349.536 264.796 352.608C266.258 353.746 267.753 354.837 269.27 355.895C270.482 355.059 271.687 354.213 272.879 353.353C273.948 352.581 275.01 351.804 276.065 351.019C291.959 339.173 309.109 323.637 329.84 321.9C350.321 320.185 362.909 336.59 377.739 347.709C379.292 348.873 380.88 349.972 382.488 351.033C397.627 361.046 415.065 366.599 433.202 368.393C452.653 370.316 477.235 368.098 492.84 355.498C500.943 348.957 491.853 338.32 483.643 339.761C475.176 341.247 467.296 344.747 458.77 346.244C449.61 347.853 439.877 347.954 430.657 346.712C422.241 345.579 414.087 343.252 406.355 339.935C398.3 336.48 390.704 331.949 383.764 326.543C381 324.39 378.26 322.22 375.504 320.11C364.513 311.7 353.217 304.298 338.619 303.153C335.439 302.905 332.271 302.972 329.121 303.258C320.83 304.012 312.693 306.463 304.945 309.88Z" fill="#A1C8F6"/>
<path d="M135.5 331.5C136.298 330.732 143.084 329.8 143.893 329.073C138.797 324.819 137.856 323.898 132.874 319.012C132.256 318.406 131.636 317.801 131.015 317.198C128.633 314.879 126.237 312.591 123.803 310.411C115.898 303.327 107.606 297.379 98.1893 295.232C85.0648 292.24 73.1332 299.221 62.292 309.67C49.2066 322.283 35.6056 341.061 18.5201 336.973C15.45 336.239 13.8295 341.972 16.8837 343.578C26.57 348.669 35.0827 346.178 43.1628 340.721C58.2514 330.526 71.8254 309.953 88.678 308.898C107.489 307.721 114.012 320.681 128.5 335.312C131.595 332.118 132.496 334.396 135.5 331.5Z" fill="#A1C8F6"/>
<path d="M224.434 362.53C225.513 361.775 226.602 361.046 227.697 360.333C220.647 355.991 213.796 350.985 206.892 346.014C206.035 345.397 205.176 344.781 204.315 344.168C201.015 341.808 197.694 339.479 194.325 337.256C183.38 330.036 171.926 323.945 158.998 321.635C140.98 318.415 124.768 325.187 110.109 335.444C92.4163 347.827 74.1248 366.364 50.6652 361.979C46.4498 361.192 44.3312 366.896 48.5401 368.555C61.8883 373.813 73.4981 371.471 84.464 366.156C104.941 356.225 123.165 335.894 146.216 335.133C170.622 334.326 189.923 354.548 208.994 369.331C210.028 370.134 211.062 370.914 212.096 371.68C216.277 368.54 220.372 365.373 224.434 362.53Z" fill="#68A3F1"/>
<path d="M308.883 359.372C304.911 356.324 300.995 353.246 297 350.359C287.022 343.15 276.542 337.178 263.406 336.164C259.611 335.869 255.827 335.982 252.078 336.425C241.652 337.656 231.495 341.473 222.073 346.38C217.006 349.02 212.144 351.966 207.581 355.012C206.839 355.505 206.1 356.013 205.361 356.521C202.497 358.49 199.653 360.541 196.807 362.617C192.576 365.7 188.337 368.824 184 371.785C190.408 374.715 196.596 378.232 202.695 381.945C218.061 370.457 234.676 356.405 254.563 354.763C275.194 353.061 287.874 369.339 302.813 380.372C304.377 381.529 305.977 382.617 307.597 383.672C309.392 384.841 310.217 384.952 312.074 386C316.856 382.513 321.597 379.007 326.423 375.786C328.235 374.578 330.101 373.385 332 372.218C325.1 369.42 319.525 366.852 313.39 362.633C311.862 361.584 310.355 360.501 308.883 359.372Z" fill="#3C64BC"/>
<path d="M340.513 352.309C330.3 354.714 320.482 360.207 311.684 366.549C310.053 367.725 308.45 368.926 306.894 370.143C302.749 373.386 298.677 376.918 294.57 380.43C285.547 388.145 276.347 395.766 265.805 400.035C262.981 401.179 260.177 401.91 257.391 402.317C254.491 402.742 251.613 402.807 248.761 402.529C241.669 401.836 234.737 399.125 228.015 395.149C220.206 390.531 212.655 384.775 205.015 379.151C203.273 377.868 201.525 376.593 199.769 375.339C194.532 371.599 189.217 368.057 183.713 365.106C177.004 361.507 170.018 358.788 162.554 357.681C147.566 355.462 134.32 361.84 122.416 371.585C121.471 372.358 120.533 373.147 119.603 373.96C116.105 377.026 112.592 380.421 109.001 383.793C96.9517 395.105 84.0209 406.153 67.7872 403.6C64.0009 403.005 62.3533 408.869 66.1705 410.345C78.2751 415.024 88.5144 412.105 98.0558 406.213C115.872 395.204 131.246 373.793 151.738 371.928C173.435 369.952 191.468 389.468 209.068 403.499C212.391 406.147 215.697 408.602 219.011 410.677C230.314 417.76 242.952 422.892 255.997 421.87C271.743 420.637 285.459 411.748 297.964 401.326C298.889 400.557 299.808 399.779 300.72 398.993C314.471 387.155 329.309 371.629 347.244 369.894C364.963 368.18 375.854 384.574 388.685 395.686C390.028 396.849 391.402 397.947 392.794 399.01C405.891 409.014 420.978 414.564 436.669 416.356C453.498 418.278 474.765 416.061 488.266 403.47C495.276 396.933 487.412 386.303 480.309 387.743C472.983 389.228 466.166 392.728 458.79 394.224C450.865 395.83 442.445 395.931 434.467 394.691C419.6 392.376 405.664 385.121 393.898 374.536C383.103 364.822 372.786 354.744 359.218 351.851C357.792 351.547 356.342 351.296 354.84 351.161C350.021 350.724 345.228 351.197 340.513 352.309Z" fill="#2C479D"/>
</svg>
