<svg xmlns="http://www.w3.org/2000/svg" viewBox="0 0 400 200">
  <defs>
    <linearGradient id="boxGrad1" x1="0%" y1="0%" x2="100%" y2="100%">
      <stop offset="0%" style="stop-color:#6366f1"/>
      <stop offset="100%" style="stop-color:#8b5cf6"/>
    </linearGradient>
    <linearGradient id="boxGrad2" x1="0%" y1="0%" x2="100%" y2="100%">
      <stop offset="0%" style="stop-color:#06b6d4"/>
      <stop offset="100%" style="stop-color:#0891b2"/>
    </linearGradient>
    <linearGradient id="boxGrad3" x1="0%" y1="0%" x2="100%" y2="100%">
      <stop offset="0%" style="stop-color:#f59e0b"/>
      <stop offset="100%" style="stop-color:#d97706"/>
    </linearGradient>
    <linearGradient id="boxGrad4" x1="0%" y1="0%" x2="100%" y2="100%">
      <stop offset="0%" style="stop-color:#10b981"/>
      <stop offset="100%" style="stop-color:#059669"/>
    </linearGradient>
    <linearGradient id="boxGrad5" x1="0%" y1="0%" x2="100%" y2="100%">
      <stop offset="0%" style="stop-color:#ef4444"/>
      <stop offset="100%" style="stop-color:#dc2626"/>
    </linearGradient>
  </defs>
  
  <!-- Container -->
  <rect x="10" y="10" width="380" height="180" rx="8" fill="none" stroke="#374151" stroke-width="2" stroke-dasharray="6,4"/>
  
  <!-- Row 1 -->
  <rect x="20" y="20" width="80" height="50" rx="6" fill="url(#boxGrad1)"/>
  <text x="60" y="50" fill="white" font-family="system-ui" font-size="12" text-anchor="middle" font-weight="bold">1</text>
  
  <rect x="110" y="20" width="120" height="50" rx="6" fill="url(#boxGrad2)"/>
  <text x="170" y="50" fill="white" font-family="system-ui" font-size="12" text-anchor="middle" font-weight="bold">2</text>
  
  <rect x="240" y="20" width="60" height="50" rx="6" fill="url(#boxGrad3)"/>
  <text x="270" y="50" fill="white" font-family="system-ui" font-size="12" text-anchor="middle" font-weight="bold">3</text>
  
  <!-- Row 2 -->
  <rect x="20" y="80" width="100" height="50" rx="6" fill="url(#boxGrad4)"/>
  <text x="70" y="110" fill="white" font-family="system-ui" font-size="12" text-anchor="middle" font-weight="bold">4</text>
  
  <rect x="130" y="80" width="90" height="50" rx="6" fill="url(#boxGrad5)"/>
  <text x="175" y="110" fill="white" font-family="system-ui" font-size="12" text-anchor="middle" font-weight="bold">5</text>
  
  <rect x="230" y="80" width="70" height="50" rx="6" fill="url(#boxGrad1)"/>
  <text x="265" y="110" fill="white" font-family="system-ui" font-size="12" text-anchor="middle" font-weight="bold">6</text>
  
  <!-- Row 3 -->
  <rect x="20" y="140" width="140" height="40" rx="6" fill="url(#boxGrad2)"/>
  <text x="90" y="165" fill="white" font-family="system-ui" font-size="12" text-anchor="middle" font-weight="bold">7</text>
  
  <!-- Arrows showing flow -->
  <path d="M 305 45 L 330 45 Q 345 45 345 60 L 345 75 Q 345 90 330 90 L 20 90" fill="none" stroke="#9ca3af" stroke-width="1.5" stroke-dasharray="4,3"/>
  <polygon points="20,87 12,90 20,93" fill="#9ca3af"/>
  
  <!-- Direction indicator -->
  <text x="355" y="105" fill="#6b7280" font-family="system-ui" font-size="10" text-anchor="middle">wrap</text>
</svg>

